<svg width="89" height="24" viewBox="0 0 89 24" fill="none" xmlns="http://www.w3.org/2000/svg">
<path d="M12.5625 17.9999H9.5625V12.1293C9.5625 11.816 9.64834 11.3437 9.88555 10.9672C10.1058 10.6176 10.4553 10.3435 11.0625 10.3435C11.6697 10.3435 12.0192 10.6176 12.2395 10.9672C12.4767 11.3437 12.5625 11.816 12.5625 12.1293V17.9999Z" fill="#00796B" stroke="#00796B"/>
<path d="M12.5 7C12.5 7.82843 11.8284 8.5 11 8.5C10.1716 8.5 9.5 7.82843 9.5 7C9.5 6.17157 10.1716 5.5 11 5.5C11.8284 5.5 12.5 6.17157 12.5 7Z" fill="#00796B" stroke="#00796B"/>
<rect x="0.65" y="1.65" width="20.7" height="20.7" rx="1.35" stroke="#00796B" stroke-width="0.7"/>
<path d="M26.2188 6.48438H28.6641V13.5625C28.6641 14.3542 28.7578 14.9323 28.9453 15.2969C29.237 15.9427 29.8724 16.2656 30.8516 16.2656C31.8255 16.2656 32.4583 15.9427 32.75 15.2969C32.9375 14.9323 33.0312 14.3542 33.0312 13.5625V6.48438H35.4766V13.5625C35.4766 14.7865 35.2865 15.7396 34.9062 16.4219C34.1979 17.6719 32.8464 18.2969 30.8516 18.2969C28.8568 18.2969 27.5026 17.6719 26.7891 16.4219C26.4089 15.7396 26.2188 14.7865 26.2188 13.5625V6.48438ZM42.3203 9.28125C43.2005 9.28125 43.9193 9.51302 44.4766 9.97656C45.0391 10.4349 45.3203 11.1979 45.3203 12.2656V18H43.0391V12.8203C43.0391 12.3724 42.9792 12.0286 42.8594 11.7891C42.6406 11.3516 42.224 11.1328 41.6094 11.1328C40.8542 11.1328 40.3359 11.4531 40.0547 12.0938C39.9089 12.4323 39.8359 12.8646 39.8359 13.3906V18H37.6172V9.5H39.7656V10.7422C40.0521 10.3047 40.3229 9.98958 40.5781 9.79688C41.0365 9.45312 41.6172 9.28125 42.3203 9.28125ZM60.7416 6.48438H64.2025V18H61.9603V10.2109C61.9603 9.98698 61.9629 9.67448 61.9681 9.27344C61.9733 8.86719 61.9759 8.55469 61.9759 8.33594L59.7962 18H57.4603L55.2962 8.33594C55.2962 8.55469 55.2989 8.86719 55.3041 9.27344C55.3093 9.67448 55.3119 9.98698 55.3119 10.2109V18H53.0697V6.48438H56.5697L58.6634 15.5391L60.7416 6.48438ZM69.6166 11.0938C69.1009 11.0938 68.6999 11.2552 68.4134 11.5781C68.1322 11.901 67.9551 12.3385 67.8822 12.8906H71.3431C71.3067 12.3021 71.127 11.8568 70.8041 11.5547C70.4864 11.2474 70.0905 11.0938 69.6166 11.0938ZM69.6166 9.25781C70.3249 9.25781 70.9629 9.39062 71.5306 9.65625C72.0983 9.92188 72.5671 10.3411 72.9369 10.9141C73.2702 11.4193 73.4864 12.0052 73.5853 12.6719C73.6426 13.0625 73.666 13.625 73.6556 14.3594H67.8275C67.8587 15.2135 68.127 15.8125 68.6322 16.1562C68.9395 16.3698 69.3093 16.4766 69.7416 16.4766C70.1999 16.4766 70.5723 16.3464 70.8587 16.0859C71.015 15.9453 71.153 15.75 71.2728 15.5H73.5462C73.489 16.0052 73.2259 16.5182 72.7572 17.0391C72.028 17.8672 71.0072 18.2812 69.6947 18.2812C68.6114 18.2812 67.6556 17.9323 66.8275 17.2344C65.9994 16.5365 65.5853 15.401 65.5853 13.8281C65.5853 12.3542 65.9577 11.224 66.7025 10.4375C67.4525 9.65104 68.4239 9.25781 69.6166 9.25781ZM78.5228 11.0938C78.0072 11.0938 77.6061 11.2552 77.3197 11.5781C77.0384 11.901 76.8614 12.3385 76.7884 12.8906H80.2494C80.2129 12.3021 80.0332 11.8568 79.7103 11.5547C79.3926 11.2474 78.9968 11.0938 78.5228 11.0938ZM78.5228 9.25781C79.2311 9.25781 79.8692 9.39062 80.4369 9.65625C81.0046 9.92188 81.4733 10.3411 81.8431 10.9141C82.1765 11.4193 82.3926 12.0052 82.4916 12.6719C82.5489 13.0625 82.5723 13.625 82.5619 14.3594H76.7337C76.765 15.2135 77.0332 15.8125 77.5384 16.1562C77.8457 16.3698 78.2155 16.4766 78.6478 16.4766C79.1061 16.4766 79.4785 16.3464 79.765 16.0859C79.9212 15.9453 80.0593 15.75 80.1791 15.5H82.4525C82.3952 16.0052 82.1322 16.5182 81.6634 17.0391C80.9343 17.8672 79.9134 18.2812 78.6009 18.2812C77.5176 18.2812 76.5619 17.9323 75.7337 17.2344C74.9056 16.5365 74.4916 15.401 74.4916 13.8281C74.4916 12.3542 74.864 11.224 75.6087 10.4375C76.3587 9.65104 77.3301 9.25781 78.5228 9.25781ZM83.1947 11.1484V9.5625H84.3822V7.1875H86.5853V9.5625H87.9681V11.1484H86.5853V15.6484C86.5853 15.9974 86.6296 16.2161 86.7181 16.3047C86.8067 16.388 87.0775 16.4297 87.5306 16.4297C87.5983 16.4297 87.6686 16.4297 87.7416 16.4297C87.8197 16.4245 87.8952 16.4193 87.9681 16.4141V18.0781L86.9134 18.1172C85.8614 18.1536 85.1426 17.9714 84.7572 17.5703C84.5072 17.3151 84.3822 16.9219 84.3822 16.3906V11.1484H83.1947Z" fill="black"/>
<path d="M50.5 17.4999H47.5V11.6293C47.5 11.316 47.5858 10.8437 47.823 10.4672C48.0433 10.1176 48.3928 9.84354 49 9.84354C49.6072 9.84354 49.9567 10.1176 50.177 10.4672C50.4142 10.8437 50.5 11.316 50.5 11.6293V17.4999Z" fill="#00796B" stroke="#00796B"/>
<path d="M50.4375 6.5C50.4375 7.32843 49.7659 8 48.9375 8C48.1091 8 47.4375 7.32843 47.4375 6.5C47.4375 5.67157 48.1091 5 48.9375 5C49.7659 5 50.4375 5.67157 50.4375 6.5Z" fill="#00796B" stroke="#00796B"/>
</svg>