<svg width="30" height="30" viewBox="0 0 30 30" fill="none" xmlns="http://www.w3.org/2000/svg">
<path d="M13.5625 20.9999V15.1293C13.5625 14.816 13.6483 14.3437 13.8855 13.9672C14.1058 13.6176 14.4553 13.3435 15.0625 13.3435C15.6697 13.3435 16.0192 13.6176 16.2395 13.9672C16.4767 14.3437 16.5625 14.816 16.5625 15.1293V20.9999H13.5625Z" fill="#00796B" stroke="#00796B"/>
<path d="M16.5 10C16.5 10.8284 15.8284 11.5 15 11.5C14.1716 11.5 13.5 10.8284 13.5 10C13.5 9.17157 14.1716 8.5 15 8.5C15.8284 8.5 16.5 9.17157 16.5 10Z" fill="#00796B" stroke="#00796B"/>
<rect x="4.65" y="4.65" width="20.7" height="20.7" rx="1.35" stroke="#00796B" stroke-width="0.7"/>
</svg>